<svg width="32" height="32" viewBox="0 0 32 32" fill="none" xmlns="http://www.w3.org/2000/svg">
<g clip-path="url(#clip0_49_2)">
<path d="M27 0H5C2.23858 0 0 2.23858 0 5V27C0 29.7614 2.23858 32 5 32H27C29.7614 32 32 29.7614 32 27V5C32 2.23858 29.7614 0 27 0Z" fill="#333332"/>
<path d="M7 8C7 7.44772 7.44772 7 8 7H18.7639C19.8192 7 20.155 8.42252 19.2111 8.89443L12.6315 12.1843C12.4379 12.281 12.281 12.4379 12.1843 12.6315L8.89443 19.2111C8.42252 20.155 7 19.8192 7 18.7639V8Z" fill="white"/>
<path d="M25.0001 24C25.0001 24.5523 24.5524 25 24.0001 25H13.2362C12.1809 25 11.8451 23.5775 12.789 23.1056L19.3686 19.8157C19.5622 19.719 19.7191 19.5621 19.8158 19.3685L23.1057 12.7889C23.5776 11.845 25.0001 12.1808 25.0001 13.2361V24Z" fill="#E69B1E"/>
</g>
<defs>
<clipPath id="clip0_49_2">
<rect width="32" height="32" fill="white"/>
</clipPath>
</defs>
</svg>
